<svg width="48" height="48" viewBox="0 0 48 48" fill="none" xmlns="http://www.w3.org/2000/svg">
<g clip-path="url(#clip0)" filter="url(#filter0_d)">
<path fill-rule="evenodd" clip-rule="evenodd" d="M35.3333 40H12.6666C11.5279 40.0022 10.3999 39.7796 9.34736 39.3449C8.29484 38.9102 7.33853 38.2719 6.5333 37.4666C5.72808 36.6614 5.08978 35.7051 4.65505 34.6526C4.22031 33.6001 3.9977 32.4721 3.99997 31.3333V8.66664C3.9977 7.52788 4.22031 6.39987 4.65505 5.34736C5.08978 4.29484 5.72808 3.33853 6.5333 2.5333C7.33853 1.72808 8.29484 1.08978 9.34736 0.655047C10.3999 0.220313 11.5279 -0.00230408 12.6666 -2.85057e-05H35.3333C36.4721 -0.00230408 37.6001 0.220313 38.6526 0.655047C39.7051 1.08978 40.6614 1.72808 41.4666 2.5333C42.2719 3.33853 42.9102 4.29484 43.3449 5.34736C43.7796 6.39987 44.0022 7.52788 44 8.66664V31.3333C44.0022 32.4721 43.7796 33.6001 43.3449 34.6526C42.9102 35.7051 42.2719 36.6614 41.4666 37.4666C40.6614 38.2719 39.7051 38.9102 38.6526 39.3449C37.6001 39.7796 36.4721 40.0022 35.3333 40Z" fill="url(#paint0_linear)"/>
<path fill-rule="evenodd" clip-rule="evenodd" d="M33.3333 24.1667V25.3333C33.3329 26.0822 33.266 26.8296 33.1333 27.5667C33.0686 27.9423 32.929 28.3012 32.7229 28.6218C32.5167 28.9425 32.2482 29.2185 31.9333 29.4333H31.9C31.2354 29.9376 30.4334 30.2282 29.6 30.2667L28.9667 30.3333C28.4696 30.3638 27.9724 30.2771 27.515 30.0803C27.0576 29.8834 26.6529 29.5819 26.3333 29.2C26.0008 28.7972 25.7822 28.3127 25.7002 27.7969C25.6181 27.2811 25.6756 26.7528 25.8667 26.2667V26.2333C26.0412 25.7579 26.3302 25.3328 26.7081 24.9956C27.086 24.6584 27.5412 24.4195 28.0333 24.3L30.5333 23.6333C30.8478 23.5584 31.1276 23.3793 31.3274 23.1251C31.5271 22.8709 31.6349 22.5566 31.6333 22.2333V20.5333V13.3667C31.6356 13.2839 31.6188 13.2017 31.5841 13.1266C31.5494 13.0514 31.4978 12.9853 31.4333 12.9333C31.3671 12.8844 31.2913 12.8502 31.2108 12.833C31.1303 12.8157 31.0471 12.8158 30.9667 12.8333L20.3 15C20.1109 15.0302 19.9392 15.1279 19.8167 15.275C19.6941 15.4221 19.629 15.6086 19.6333 15.8V27.2V28.0333C19.6329 28.7822 19.566 29.5296 19.4333 30.2667C19.3686 30.6423 19.229 31.0012 19.0229 31.3218C18.8167 31.6425 18.5482 31.9185 18.2333 32.1333H18.2C17.5354 32.6376 16.7334 32.9282 15.9 32.9667L15.3 33C14.803 33.0305 14.3058 32.9438 13.8484 32.7469C13.391 32.5501 12.9862 32.2486 12.6667 31.8667C12.3342 31.4639 12.1156 30.9794 12.0335 30.4636C11.9514 29.9478 12.0089 29.4194 12.2 28.9333V28.9C12.3745 28.4246 12.6635 27.9994 13.0414 27.6622C13.4193 27.325 13.8745 27.0861 14.3667 26.9667L16.8667 26.3C17.1811 26.2251 17.461 26.0459 17.6607 25.7917C17.8604 25.5376 17.9683 25.2233 17.9667 24.9V23.2V9.96667C17.9704 9.68228 18.0718 9.40781 18.2538 9.18932C18.4359 8.97082 18.6876 8.8216 18.9667 8.76667L32.3333 6.33333C32.579 6.30453 32.827 6.36357 33.0333 6.5C33.127 6.57689 33.2024 6.67355 33.2543 6.78305C33.3062 6.89255 33.3332 7.01217 33.3333 7.13333V24.1667Z" fill="#BB58BB"/>
<path fill-rule="evenodd" clip-rule="evenodd" d="M33.3333 24.1667V25.3333C33.3329 26.0822 33.266 26.8296 33.1333 27.5667C33.0686 27.9423 32.929 28.3012 32.7229 28.6218C32.5167 28.9425 32.2482 29.2185 31.9333 29.4333H31.9C31.2354 29.9376 30.4334 30.2282 29.6 30.2667L28.9667 30.3333C28.4696 30.3638 27.9724 30.2771 27.515 30.0803C27.0576 29.8834 26.6529 29.5819 26.3333 29.2C26.0008 28.7972 25.7822 28.3127 25.7002 27.7969C25.6181 27.2811 25.6756 26.7528 25.8667 26.2667V26.2333C26.0412 25.7579 26.3302 25.3328 26.7081 24.9956C27.086 24.6584 27.5412 24.4195 28.0333 24.3L30.5333 23.6333C30.8478 23.5584 31.1276 23.3793 31.3274 23.1251C31.5271 22.8709 31.6349 22.5566 31.6333 22.2333V20.5333V13.3667C31.6356 13.2839 31.6188 13.2017 31.5841 13.1266C31.5494 13.0514 31.4978 12.9853 31.4333 12.9333C31.3671 12.8844 31.2913 12.8502 31.2108 12.833C31.1303 12.8157 31.0471 12.8158 30.9667 12.8333L20.3 15C20.1109 15.0302 19.9392 15.1279 19.8167 15.275C19.6941 15.4221 19.629 15.6086 19.6333 15.8V27.2V28.0333C19.6329 28.7822 19.566 29.5296 19.4333 30.2667C19.3686 30.6423 19.229 31.0012 19.0229 31.3218C18.8167 31.6425 18.5482 31.9185 18.2333 32.1333H18.2C17.5354 32.6376 16.7334 32.9282 15.9 32.9667L15.3 33C14.803 33.0305 14.3058 32.9438 13.8484 32.7469C13.391 32.5501 12.9862 32.2486 12.6667 31.8667C12.3342 31.4639 12.1156 30.9794 12.0335 30.4636C11.9514 29.9478 12.0089 29.4194 12.2 28.9333V28.9C12.3745 28.4246 12.6635 27.9994 13.0414 27.6622C13.4193 27.325 13.8745 27.0861 14.3667 26.9667L16.8667 26.3C17.1811 26.2251 17.461 26.0459 17.6607 25.7917C17.8604 25.5376 17.9683 25.2233 17.9667 24.9V23.2V9.96667C17.9704 9.68228 18.0718 9.40781 18.2538 9.18932C18.4359 8.97082 18.6876 8.8216 18.9667 8.76667L32.3333 6.33333C32.579 6.30453 32.827 6.36357 33.0333 6.5C33.127 6.57689 33.2024 6.67355 33.2543 6.78305C33.3062 6.89255 33.3332 7.01217 33.3333 7.13333V24.1667Z" fill="url(#paint1_radial)"/>
<path fill-rule="evenodd" clip-rule="evenodd" d="M33.3333 24.1667V25.3333C33.3329 26.0822 33.266 26.8296 33.1333 27.5667C33.0686 27.9423 32.929 28.3012 32.7229 28.6218C32.5167 28.9425 32.2482 29.2185 31.9333 29.4333H31.9C31.2354 29.9376 30.4334 30.2282 29.6 30.2667L28.9667 30.3333C28.4696 30.3638 27.9724 30.2771 27.515 30.0803C27.0576 29.8834 26.6529 29.5819 26.3333 29.2C26.0008 28.7972 25.7822 28.3127 25.7002 27.7969C25.6181 27.2811 25.6756 26.7528 25.8667 26.2667V26.2333C26.0412 25.7579 26.3302 25.3328 26.7081 24.9956C27.086 24.6584 27.5412 24.4195 28.0333 24.3L30.5333 23.6333C30.8478 23.5584 31.1276 23.3793 31.3274 23.1251C31.5271 22.8709 31.6349 22.5566 31.6333 22.2333V20.5333V13.3667C31.6356 13.2839 31.6188 13.2017 31.5841 13.1266C31.5494 13.0514 31.4978 12.9853 31.4333 12.9333C31.3671 12.8844 31.2913 12.8502 31.2108 12.833C31.1303 12.8157 31.0471 12.8158 30.9667 12.8333L20.3 15C20.1109 15.0302 19.9392 15.1279 19.8167 15.275C19.6941 15.4221 19.629 15.6086 19.6333 15.8V27.2V28.0333C19.6329 28.7822 19.566 29.5296 19.4333 30.2667C19.3686 30.6423 19.229 31.0012 19.0229 31.3218C18.8167 31.6425 18.5482 31.9185 18.2333 32.1333H18.2C17.5354 32.6376 16.7334 32.9282 15.9 32.9667L15.3 33C14.803 33.0305 14.3058 32.9438 13.8484 32.7469C13.391 32.5501 12.9862 32.2486 12.6667 31.8667C12.3342 31.4639 12.1156 30.9794 12.0335 30.4636C11.9514 29.9478 12.0089 29.4194 12.2 28.9333V28.9C12.3745 28.4246 12.6635 27.9994 13.0414 27.6622C13.4193 27.325 13.8745 27.0861 14.3667 26.9667L16.8667 26.3C17.1811 26.2251 17.461 26.0459 17.6607 25.7917C17.8604 25.5376 17.9683 25.2233 17.9667 24.9V23.2V9.96667C17.9704 9.68228 18.0718 9.40781 18.2538 9.18932C18.4359 8.97082 18.6876 8.8216 18.9667 8.76667L32.3333 6.33333C32.579 6.30453 32.827 6.36357 33.0333 6.5C33.127 6.57689 33.2024 6.67355 33.2543 6.78305C33.3062 6.89255 33.3332 7.01217 33.3333 7.13333V24.1667Z" fill="url(#paint2_radial)"/>
<path fill-rule="evenodd" clip-rule="evenodd" d="M33.3333 24.1667V25.3333C33.3329 26.0822 33.266 26.8296 33.1333 27.5667C33.0686 27.9423 32.929 28.3012 32.7229 28.6218C32.5167 28.9425 32.2482 29.2185 31.9333 29.4333H31.9C31.2354 29.9376 30.4334 30.2282 29.6 30.2667L28.9667 30.3333C28.4696 30.3638 27.9724 30.2771 27.515 30.0803C27.0576 29.8834 26.6529 29.5819 26.3333 29.2C26.0008 28.7972 25.7822 28.3127 25.7002 27.7969C25.6181 27.2811 25.6756 26.7528 25.8667 26.2667V26.2333C26.0412 25.7579 26.3302 25.3328 26.7081 24.9956C27.086 24.6584 27.5412 24.4195 28.0333 24.3L30.5333 23.6333C30.8478 23.5584 31.1276 23.3793 31.3274 23.1251C31.5271 22.8709 31.6349 22.5566 31.6333 22.2333V20.5333V13.3667C31.6356 13.2839 31.6188 13.2017 31.5841 13.1266C31.5494 13.0514 31.4978 12.9853 31.4333 12.9333C31.3671 12.8844 31.2913 12.8502 31.2108 12.833C31.1303 12.8157 31.0471 12.8158 30.9667 12.8333L20.3 15C20.1109 15.0302 19.9392 15.1279 19.8167 15.275C19.6941 15.4221 19.629 15.6086 19.6333 15.8V27.2V28.0333C19.6329 28.7822 19.566 29.5296 19.4333 30.2667C19.3686 30.6423 19.229 31.0012 19.0229 31.3218C18.8167 31.6425 18.5482 31.9185 18.2333 32.1333H18.2C17.5354 32.6376 16.7334 32.9282 15.9 32.9667L15.3 33C14.803 33.0305 14.3058 32.9438 13.8484 32.7469C13.391 32.5501 12.9862 32.2486 12.6667 31.8667C12.3342 31.4639 12.1156 30.9794 12.0335 30.4636C11.9514 29.9478 12.0089 29.4194 12.2 28.9333V28.9C12.3745 28.4246 12.6635 27.9994 13.0414 27.6622C13.4193 27.325 13.8745 27.0861 14.3667 26.9667L16.8667 26.3C17.1811 26.2251 17.461 26.0459 17.6607 25.7917C17.8604 25.5376 17.9683 25.2233 17.9667 24.9V23.2V9.96667C17.9704 9.68228 18.0718 9.40781 18.2538 9.18932C18.4359 8.97082 18.6876 8.8216 18.9667 8.76667L32.3333 6.33333C32.579 6.30453 32.827 6.36357 33.0333 6.5C33.127 6.57689 33.2024 6.67355 33.2543 6.78305C33.3062 6.89255 33.3332 7.01217 33.3333 7.13333V24.1667Z" fill="url(#paint3_linear)"/>
<path fill-rule="evenodd" clip-rule="evenodd" d="M33.3333 24.1667V25.3333C33.3329 26.0822 33.266 26.8296 33.1333 27.5667C33.0686 27.9423 32.929 28.3012 32.7229 28.6218C32.5167 28.9425 32.2482 29.2185 31.9333 29.4333H31.9C31.2354 29.9376 30.4334 30.2282 29.6 30.2667L28.9667 30.3333C28.4696 30.3638 27.9724 30.2771 27.515 30.0803C27.0576 29.8834 26.6529 29.5819 26.3333 29.2C26.0008 28.7972 25.7822 28.3127 25.7002 27.7969C25.6181 27.2811 25.6756 26.7528 25.8667 26.2667V26.2333C26.0412 25.7579 26.3302 25.3328 26.7081 24.9956C27.086 24.6584 27.5412 24.4195 28.0333 24.3L30.5333 23.6333C30.8478 23.5584 31.1276 23.3793 31.3274 23.1251C31.5271 22.8709 31.6349 22.5566 31.6333 22.2333V20.5333V13.3667C31.6356 13.2839 31.6188 13.2017 31.5841 13.1266C31.5494 13.0514 31.4978 12.9853 31.4333 12.9333C31.3671 12.8844 31.2913 12.8502 31.2108 12.833C31.1303 12.8157 31.0471 12.8158 30.9667 12.8333L20.3 15C20.1109 15.0302 19.9392 15.1279 19.8167 15.275C19.6941 15.4221 19.629 15.6086 19.6333 15.8V27.2V28.0333C19.6329 28.7822 19.566 29.5296 19.4333 30.2667C19.3686 30.6423 19.229 31.0012 19.0229 31.3218C18.8167 31.6425 18.5482 31.9185 18.2333 32.1333H18.2C17.5354 32.6376 16.7334 32.9282 15.9 32.9667L15.3 33C14.803 33.0305 14.3058 32.9438 13.8484 32.7469C13.391 32.5501 12.9862 32.2486 12.6667 31.8667C12.3342 31.4639 12.1156 30.9794 12.0335 30.4636C11.9514 29.9478 12.0089 29.4194 12.2 28.9333V28.9C12.3745 28.4246 12.6635 27.9994 13.0414 27.6622C13.4193 27.325 13.8745 27.0861 14.3667 26.9667L16.8667 26.3C17.1811 26.2251 17.461 26.0459 17.6607 25.7917C17.8604 25.5376 17.9683 25.2233 17.9667 24.9V23.2V9.96667C17.9704 9.68228 18.0718 9.40781 18.2538 9.18932C18.4359 8.97082 18.6876 8.8216 18.9667 8.76667L32.3333 6.33333C32.579 6.30453 32.827 6.36357 33.0333 6.5C33.127 6.57689 33.2024 6.67355 33.2543 6.78305C33.3062 6.89255 33.3332 7.01217 33.3333 7.13333V24.1667Z" fill="white"/>
</g>
<defs>
<filter id="filter0_d" x="0" y="0" width="48" height="48" filterUnits="userSpaceOnUse" color-interpolation-filters="sRGB">
<feFlood flood-opacity="0" result="BackgroundImageFix"/>
<feColorMatrix in="SourceAlpha" type="matrix" values="0 0 0 0 0 0 0 0 0 0 0 0 0 0 0 0 0 0 127 0" result="hardAlpha"/>
<feOffset dy="4"/>
<feGaussianBlur stdDeviation="2"/>
<feComposite in2="hardAlpha" operator="out"/>
<feColorMatrix type="matrix" values="0 0 0 0 0 0 0 0 0 0 0 0 0 0 0 0 0 0 0.25 0"/>
<feBlend mode="normal" in2="BackgroundImageFix" result="effect1_dropShadow"/>
<feBlend mode="normal" in="SourceGraphic" in2="effect1_dropShadow" result="shape"/>
</filter>
<linearGradient id="paint0_linear" x1="24" y1="40" x2="24" y2="-2.67029e-05" gradientUnits="userSpaceOnUse">
<stop stop-color="#FD355A"/>
<stop offset="1" stop-color="#FD5163"/>
</linearGradient>
<radialGradient id="paint1_radial" cx="0" cy="0" r="1" gradientUnits="userSpaceOnUse" gradientTransform="translate(16.54 30.1295) rotate(90) scale(16.871)">
<stop stop-color="#7470F9"/>
<stop offset="1" stop-color="#7A70FE" stop-opacity="0"/>
</radialGradient>
<radialGradient id="paint2_radial" cx="0" cy="0" r="1" gradientUnits="userSpaceOnUse" gradientTransform="translate(29.8504 26.2787) rotate(-105.538) scale(13.618)">
<stop stop-color="#4CA3F8"/>
<stop offset="0.362" stop-color="#4CA4F7"/>
<stop offset="1" stop-color="#4AA2F9" stop-opacity="0"/>
</radialGradient>
<linearGradient id="paint3_linear" x1="20.1006" y1="11.4613" x2="25.9756" y2="22.127" gradientUnits="userSpaceOnUse">
<stop stop-color="#FF6380"/>
<stop offset="1" stop-color="#F65E79" stop-opacity="0"/>
</linearGradient>
<clipPath id="clip0">
<rect width="40" height="40" fill="white" transform="translate(4)"/>
</clipPath>
</defs>
</svg>
