<svg width="246" height="239" viewBox="0 0 246 239" fill="none" xmlns="http://www.w3.org/2000/svg">
<path d="M52.2372 68.9359C52.5962 69.0521 52.7176 69.4955 52.4642 69.7752L45.3011 77.8462C45.1639 77.9993 44.9475 78.0574 44.7522 77.994L31.3392 73.6286C31.1439 73.5653 30.9275 73.6234 30.7903 73.7764L29.6448 75.0697C29.4548 75.2861 29.4706 75.6134 29.687 75.8034L38.9457 84.0222C39.1621 84.2122 39.178 84.5448 38.9879 84.7559L32.3897 92.1882C32.1996 92.4047 31.8671 92.4205 31.6559 92.2305L0.174312 64.3013C-0.0421113 64.1113 -0.0579471 63.7787 0.132083 63.5623L8.96848 53.6121C14.0782 47.8585 16.955 46.4332 19.948 46.0004C24.0495 45.4145 28.3832 46.8344 31.8301 49.8907C35.1662 52.852 37.3885 57.2227 37.3516 60.7647C37.3357 61.8204 37.2565 62.7019 37.1035 63.5359C37.056 63.7946 37.2038 64.048 37.4571 64.1271L52.2372 68.9359ZM24.9627 57.8773C23.3844 56.4784 21.7902 56.1828 20.0852 56.9746C18.66 57.6397 17.4934 58.9488 16.728 59.8198L14.8436 61.9418C14.6535 62.1582 14.6694 62.4855 14.8858 62.6755L21.4735 68.5242C21.6899 68.7142 22.0172 68.6984 22.2072 68.482L24.3556 66.0644C25.0207 65.3148 26.1398 64.0585 26.5938 62.6069C27.2589 60.4849 26.0765 58.8644 24.9627 57.8773Z" fill="black"/>
<path d="M70.0209 47.3465L74.1013 55.2485C74.228 55.4966 74.1488 55.7975 73.9165 55.9453L54.222 68.709C53.9423 68.8885 53.5728 68.8093 53.3933 68.5295L30.558 33.2948C30.3944 33.0414 30.4683 32.7089 30.7164 32.5452L50.4584 19.7552C50.6907 19.6021 51.0021 19.6549 51.1763 19.8713L56.703 26.8021C56.9089 27.0608 56.8508 27.4461 56.571 27.6256L45.3329 34.91C45.0848 35.0737 45.0109 35.4062 45.1745 35.6543L48.0355 40.0672C48.1992 40.3206 48.5317 40.3892 48.7851 40.2256L56.9669 34.9259C57.215 34.7675 57.5423 34.8361 57.7059 35.0842L62.5042 42.4901C62.6678 42.7435 62.5939 43.0813 62.3405 43.245L54.1587 48.5394C53.9106 48.6978 53.842 49.0303 54.0003 49.2784L57.2414 54.2773C57.405 54.5306 57.7376 54.5993 57.991 54.4356L69.2502 47.1406C69.5195 46.9664 69.8731 47.0614 70.0209 47.3465Z" fill="black"/>
<path d="M98.0292 2.57851L96.9471 47.13C96.9418 47.3517 96.794 47.547 96.5776 47.6156L86.8385 50.6402C86.6221 50.7036 86.3899 50.6297 86.2632 50.4502L60.1341 14.3498C59.9229 14.0595 60.0602 13.653 60.4033 13.5475L71.7734 10.0161C72.0004 9.94744 72.2432 10.0372 72.3699 10.2378L85.8409 31.9329C86.1259 32.3921 86.828 32.1704 86.8069 31.632L85.6192 6.12045C85.6086 5.88292 85.7564 5.66649 85.9834 5.59787L97.3535 2.06648C97.6966 1.96091 98.0398 2.22484 98.0292 2.57851Z" fill="black"/>
<path d="M150.388 23.4449C149.96 35.9446 139.672 45.7734 127.463 45.3511C115.253 44.9288 105.667 34.4191 106.1 21.9193C106.528 9.4196 116.816 -0.409175 129.025 0.013114C141.235 0.435403 150.821 10.9451 150.388 23.4449ZM140.358 23.1018C140.591 16.2765 135.349 10.5334 128.671 10.3011C121.994 10.0689 116.367 15.4372 116.13 22.2677C115.892 29.093 121.139 34.8361 127.816 35.0684C134.499 35.2953 140.126 29.927 140.358 23.1018Z" fill="black"/>
<path d="M176.147 46.2906L172.231 54.3352C172.114 54.5727 171.835 54.6888 171.587 54.5991L149.58 46.6073C149.311 46.507 149.168 46.2114 149.269 45.9369L163.648 6.33678C163.748 6.06757 164.043 5.92505 164.318 6.02534L173.661 9.41949C173.93 9.51978 174.073 9.81538 173.973 10.0899L162.982 40.3469C162.882 40.6161 163.025 40.917 163.294 41.0172L175.857 45.578C176.147 45.6783 176.279 46.0108 176.147 46.2906Z" fill="black"/>
<path d="M222.282 36.3724L187.47 64.2013C187.296 64.3385 187.053 64.3544 186.863 64.2329L178.28 58.7168C178.09 58.5954 178 58.3684 178.058 58.152L188.9 14.9255C188.985 14.5771 189.386 14.4187 189.687 14.614L199.7 21.0486C199.901 21.1753 199.985 21.4234 199.912 21.6504L191.962 45.9214C191.793 46.4335 192.416 46.8346 192.812 46.4651L211.583 29.1513C211.757 28.9877 212.021 28.9666 212.216 29.0932L222.23 35.5279C222.541 35.7179 222.562 36.1455 222.282 36.3724Z" fill="black"/>
<path d="M221.232 85.2468L213.963 90.3724C213.736 90.5307 213.425 90.4938 213.245 90.2826L197.895 72.5307C197.679 72.2773 197.705 71.9025 197.958 71.6861L229.715 44.2215C229.942 44.0262 230.285 44.0526 230.48 44.2743L245.867 62.0685C246.052 62.2796 246.041 62.591 245.851 62.7969L239.749 69.2263C239.517 69.4691 239.132 69.4585 238.915 69.2051L230.153 59.0755C229.957 58.8485 229.62 58.8274 229.393 59.0227L225.413 62.4644C225.186 62.6597 225.164 63.0028 225.36 63.2245L231.736 70.5987C231.932 70.8204 231.905 71.1582 231.684 71.3535L225.006 77.1283C224.779 77.3236 224.436 77.3025 224.235 77.0703L217.859 69.7013C217.669 69.4796 217.331 69.4532 217.109 69.6485L212.601 73.5442C212.374 73.7395 212.353 74.0826 212.549 74.3096L221.327 84.4603C221.538 84.6926 221.496 85.0621 221.232 85.2468Z" fill="black"/>
<path d="M121.5 238.142C172.037 238.142 213 197.174 213 146.642C213 96.1105 172.032 55.1423 121.5 55.1423C70.9682 55.1423 30 96.1105 30 146.642C30 197.174 70.9682 238.142 121.5 238.142Z" fill="black"/>
<path d="M123.5 170.142C136.479 170.142 147 159.621 147 146.642C147 133.663 136.479 123.142 123.5 123.142C110.521 123.142 100 133.663 100 146.642C100 159.621 110.521 170.142 123.5 170.142Z" fill="white"/>
<path d="M123 150.142C124.658 150.142 126 148.577 126 146.642C126 144.708 124.658 143.142 123 143.142C121.342 143.142 120 144.708 120 146.642C120 148.577 121.346 150.142 123 150.142Z" fill="black"/>
<path d="M46.4874 118.133C46.4874 118.133 24.3987 178.408 78.2355 210.31C78.2355 210.31 104.14 230.946 116.816 229.015C117.373 229.015 124.678 228.29 125.219 228.327C128.026 228.454 137.317 229.073 140.991 226.247C142.352 225.268 143.855 224.512 145.453 224.004C150.614 223.422 165.371 219.638 180.937 203.78C199.515 184.784 204.077 164.708 202.8 150.675C201.56 137.082 203.315 136.129 199.537 126.192C199.305 125.578 199.169 124.933 199.142 124.282C198.937 120.001 197.513 98.3012 173.38 82.7127C146.546 65.2934 131.226 61.4942 123.737 63.7166C116.553 65.7167 109.269 67.3306 101.917 68.5582C89.0985 70.4313 68.6811 86.4749 65.2335 91.253C64.9497 91.6499 64.5976 91.9938 64.2035 92.269C61.0607 94.6871 48.6158 104.746 46.4874 118.133Z" stroke="white" stroke-width="2.18" stroke-miterlimit="10"/>
<path d="M111.821 80.4784C114.472 79.8143 129.669 76.7517 132.357 77.1839C139.683 78.3436 149.271 83.8309 162.064 94.1625C180.365 108.927 185.477 121.267 187.364 136.253C189.246 151.244 186.948 174.743 180.491 183.478C174.029 192.212 160.678 206.254 142.129 210.081C141.418 210.224 140.759 210.545 140.205 211.014C137.928 213.086 130.971 218.304 124.471 215.157C122.959 214.43 121.24 214.251 119.606 214.641C115.137 215.674 103.377 214.493 76.295 193.314C76.295 193.314 54.9108 177.331 57.1667 152.567C57.0244 145.029 57.5779 137.497 58.8218 130.065C60.9249 121.446 64.6673 113.318 69.8381 106.112C84.7601 85.8603 94.1213 84.9326 111.821 80.4784Z" stroke="white" stroke-width="2.11" stroke-miterlimit="10"/>
<path d="M120.236 93.1674C103.557 93.6443 88.8165 106.112 82.2289 115.624C72.8865 129.109 70.1793 156.959 76.2253 172.607C81.8361 187.173 111.838 203.43 120.862 201.39C122.375 201.029 123.962 201.225 125.348 201.93L127.142 202.826C127.72 203.117 128.379 203.212 129.016 203.091C129.653 202.969 130.231 202.64 130.667 202.158C131.962 200.42 133.735 199.095 135.773 198.348C138.273 198.057 159.416 192.832 163.689 183.406C163.928 182.839 164.268 182.319 164.692 181.864C170.308 175.807 173.945 168.182 175.118 160.011C177.496 145.069 175.516 129.316 163.609 118.035C158.02 112.73 152.807 104.237 145.848 99.4888C138.04 94.2059 128.426 92.9395 120.236 93.1674Z" stroke="white" stroke-width="2" stroke-miterlimit="10"/>
<path d="M101.281 117.631C102.251 117.138 108.383 114.215 109.515 113.927C112.481 113.126 120.3 107.756 125.467 108.164C140.97 109.38 148.233 116.766 153.815 129.235C159.391 141.703 160.381 134.892 159.889 152.772C159.438 170.018 142.327 180.878 134.628 181.706C134.01 181.769 133.407 181.973 132.878 182.303L131.127 183.293C130.368 183.733 129.529 184.011 128.654 184.105C127.784 184.199 126.898 184.115 126.065 183.848L125.572 183.702C124.907 183.492 124.204 183.434 123.513 183.539C120.038 183.911 116.521 183.581 113.178 182.565C109.834 181.548 106.726 179.872 104.043 177.635C93.7503 169.405 88.2161 164.654 88.1742 154.999C88.1322 145.349 86.9583 136.642 91.3239 129.36C94.5469 123.807 98.1683 119.218 101.281 117.631Z" stroke="white" stroke-width="1.73" stroke-miterlimit="10"/>
</svg>
