<svg width="55" height="53" viewBox="0 0 55 53" fill="none" xmlns="http://www.w3.org/2000/svg">
<g filter="url(#filter0_d)">
<path d="M42 15.5L16.5 28.9234L16.5 2.07661L42 15.5Z" fill="white"/>
</g>
<path d="M0.922852 52.7822V42.7402H2.04395V43.6836C2.30827 43.3145 2.60677 43.0387 2.93945 42.8564C3.27214 42.6696 3.67546 42.5762 4.14941 42.5762C4.76921 42.5762 5.31608 42.7357 5.79004 43.0547C6.264 43.3737 6.62174 43.8249 6.86328 44.4082C7.10482 44.987 7.22559 45.6227 7.22559 46.3154C7.22559 47.0583 7.09115 47.7282 6.82227 48.3252C6.55794 48.9176 6.17057 49.3734 5.66016 49.6924C5.1543 50.0068 4.62109 50.1641 4.06055 50.1641C3.65039 50.1641 3.28125 50.0775 2.95312 49.9043C2.62956 49.7311 2.36296 49.5124 2.15332 49.248V52.7822H0.922852ZM2.03711 46.4111C2.03711 47.3454 2.22624 48.0358 2.60449 48.4824C2.98275 48.929 3.44076 49.1523 3.97852 49.1523C4.52539 49.1523 4.99251 48.9222 5.37988 48.4619C5.77181 47.9971 5.96777 47.2793 5.96777 46.3086C5.96777 45.3835 5.77637 44.6908 5.39355 44.2305C5.0153 43.7702 4.56185 43.54 4.0332 43.54C3.50911 43.54 3.04427 43.7861 2.63867 44.2783C2.23763 44.766 2.03711 45.4769 2.03711 46.4111ZM9.68215 50V42.7402H10.7896V43.8408C11.0721 43.3258 11.3319 42.9863 11.5689 42.8223C11.8104 42.6582 12.0747 42.5762 12.3618 42.5762C12.7765 42.5762 13.1981 42.7083 13.6265 42.9727L13.2027 44.1143C12.9019 43.9365 12.6011 43.8477 12.3003 43.8477C12.0314 43.8477 11.7899 43.9297 11.5757 44.0938C11.3615 44.2533 11.2088 44.4766 11.1177 44.7637C10.981 45.2012 10.9126 45.6797 10.9126 46.1992V50H9.68215ZM20.3077 47.6621L21.5791 47.8193C21.3786 48.5622 21.0072 49.1387 20.4649 49.5488C19.9226 49.959 19.2299 50.1641 18.3868 50.1641C17.3249 50.1641 16.4818 49.8382 15.8575 49.1865C15.2377 48.5303 14.9278 47.612 14.9278 46.4316C14.9278 45.2103 15.2422 44.2624 15.8711 43.5879C16.5 42.9134 17.3158 42.5762 18.3184 42.5762C19.2891 42.5762 20.0821 42.9066 20.6973 43.5674C21.3125 44.2282 21.6202 45.1579 21.6202 46.3564C21.6202 46.4294 21.6179 46.5387 21.6133 46.6846H16.1993C16.2448 47.4821 16.4704 48.0928 16.876 48.5166C17.2816 48.9404 17.7875 49.1523 18.3936 49.1523C18.8448 49.1523 19.2299 49.0339 19.5489 48.7969C19.8679 48.5599 20.1208 48.1816 20.3077 47.6621ZM16.2676 45.6729H20.3213C20.2666 45.0622 20.1117 44.6042 19.8565 44.2988C19.4646 43.8249 18.9564 43.5879 18.3321 43.5879C17.767 43.5879 17.2907 43.777 16.9034 44.1553C16.5205 44.5335 16.3086 45.0394 16.2676 45.6729ZM26.1275 50L23.3658 42.7402H24.6646L26.2232 47.0879C26.3918 47.5573 26.5468 48.0449 26.688 48.5508C26.7974 48.168 26.9501 47.7077 27.1461 47.1699L28.7593 42.7402H30.024L27.2759 50H26.1275ZM32.0977 41.3936V39.9785H33.3282V41.3936H32.0977ZM32.0977 50V42.7402H33.3282V50H32.0977ZM41.1578 47.6621L42.4293 47.8193C42.2288 48.5622 41.8574 49.1387 41.315 49.5488C40.7727 49.959 40.08 50.1641 39.2369 50.1641C38.1751 50.1641 37.332 49.8382 36.7076 49.1865C36.0878 48.5303 35.7779 47.612 35.7779 46.4316C35.7779 45.2103 36.0924 44.2624 36.7213 43.5879C37.3502 42.9134 38.166 42.5762 39.1686 42.5762C40.1393 42.5762 40.9322 42.9066 41.5475 43.5674C42.1627 44.2282 42.4703 45.1579 42.4703 46.3564C42.4703 46.4294 42.468 46.5387 42.4635 46.6846H37.0494C37.095 47.4821 37.3206 48.0928 37.7262 48.5166C38.1318 48.9404 38.6376 49.1523 39.2438 49.1523C39.6949 49.1523 40.08 49.0339 40.399 48.7969C40.718 48.5599 40.971 48.1816 41.1578 47.6621ZM37.1178 45.6729H41.1715C41.1168 45.0622 40.9619 44.6042 40.7066 44.2988C40.3147 43.8249 39.8066 43.5879 39.1822 43.5879C38.6171 43.5879 38.1409 43.777 37.7535 44.1553C37.3707 44.5335 37.1588 45.0394 37.1178 45.6729ZM46.3009 50L44.0792 42.7402H45.3507L46.506 46.9307L46.9366 48.4893C46.9549 48.4118 47.0802 47.9128 47.3126 46.9922L48.4679 42.7402H49.7325L50.8195 46.9512L51.1818 48.3389L51.5988 46.9375L52.8429 42.7402H54.0392L51.7696 50H50.4913L49.3361 45.6523L49.0558 44.415L47.5861 50H46.3009Z" fill="white"/>
<defs>
<filter id="filter0_d" x="12.5" y="2.0766" width="33.5" height="34.8468" filterUnits="userSpaceOnUse" color-interpolation-filters="sRGB">
<feFlood flood-opacity="0" result="BackgroundImageFix"/>
<feColorMatrix in="SourceAlpha" type="matrix" values="0 0 0 0 0 0 0 0 0 0 0 0 0 0 0 0 0 0 127 0" result="hardAlpha"/>
<feOffset dy="4"/>
<feGaussianBlur stdDeviation="2"/>
<feComposite in2="hardAlpha" operator="out"/>
<feColorMatrix type="matrix" values="0 0 0 0 0 0 0 0 0 0 0 0 0 0 0 0 0 0 0.25 0"/>
<feBlend mode="normal" in2="BackgroundImageFix" result="effect1_dropShadow"/>
<feBlend mode="normal" in="SourceGraphic" in2="effect1_dropShadow" result="shape"/>
</filter>
</defs>
</svg>
