<svg width="48" height="48" viewBox="0 0 48 48" fill="none" xmlns="http://www.w3.org/2000/svg">
<g filter="url(#filter0_d)">
<path fill-rule="evenodd" clip-rule="evenodd" d="M35.8 17.8C29.4 14 18.7 13.6 12.6 15.5C11.6 15.8 10.6 15.2 10.3 14.3C10 13.3 10.6 12.3 11.5 12C18.6 9.89999 30.3 10.3 37.7 14.7C38.6 15.2 38.9 16.4 38.4 17.3C37.9 18 36.7 18.3 35.8 17.8ZM35.6 23.4C35.1 24.1 34.2 24.4 33.5 23.9C28.1 20.6 19.9 19.6 13.6 21.6C12.8 21.8 11.9 21.4 11.7 20.6C11.5 19.8 11.9 18.9 12.7 18.7C20 16.5 29 17.6 35.2 21.4C35.8 21.7 36.1 22.7 35.6 23.4ZM33.2 28.9C32.8 29.5 32.1 29.7 31.5 29.3C26.8 26.4 20.9 25.8 13.9 27.4C13.2 27.6 12.6 27.1 12.4 26.5C12.2 25.8 12.7 25.2 13.3 25C20.9 23.3 27.5 24 32.7 27.2C33.4 27.5 33.5 28.3 33.2 28.9ZM24 0C13 0 4 9 4 20C4 31 13 40 24 40C35 40 44 31 44 20C44 9 35.1 0 24 0Z" fill="#00DA5A"/>
</g>
<defs>
<filter id="filter0_d" x="0" y="0" width="48" height="48" filterUnits="userSpaceOnUse" color-interpolation-filters="sRGB">
<feFlood flood-opacity="0" result="BackgroundImageFix"/>
<feColorMatrix in="SourceAlpha" type="matrix" values="0 0 0 0 0 0 0 0 0 0 0 0 0 0 0 0 0 0 127 0" result="hardAlpha"/>
<feOffset dy="4"/>
<feGaussianBlur stdDeviation="2"/>
<feComposite in2="hardAlpha" operator="out"/>
<feColorMatrix type="matrix" values="0 0 0 0 0 0 0 0 0 0 0 0 0 0 0 0 0 0 0.25 0"/>
<feBlend mode="normal" in2="BackgroundImageFix" result="effect1_dropShadow"/>
<feBlend mode="normal" in="SourceGraphic" in2="effect1_dropShadow" result="shape"/>
</filter>
</defs>
</svg>
